<?xml version="1.0" encoding="UTF-8"?>
<!DOCTYPE svg PUBLIC "-//W3C//DTD SVG 1.1//EN" "http://www.w3.org/Graphics/SVG/1.1/DTD/svg11.dtd">
<!-- Creator: CorelDRAW -->
<svg xmlns="http://www.w3.org/2000/svg" xml:space="preserve" width="887px" height="796px" version="1.1" style="shape-rendering:geometricPrecision; text-rendering:geometricPrecision; image-rendering:optimizeQuality; fill-rule:evenodd; clip-rule:evenodd" viewBox="0 0 885.32 794.59" xmlns:xlink="http://www.w3.org/1999/xlink" xmlns:xodm="http://www.corel.com/coreldraw/odm/2003">
	<defs>
		<style type="text/css">
			<![CDATA[
			.fil3 {fill:#2D7999}
			.fil1 {fill:#89C559}
			.fil0 {fill:#373435;fill-rule:nonzero}
			.fil2 {fill:#89C559;fill-rule:nonzero}
			]]>
		</style>
	</defs>
	<g id="Camada_x0020_1">
		<metadata id="CorelCorpID_0Corel-Layer" />
		<path class="fil0" d="M655.93 471c0,-4.63 1.13,-9.11 3.41,-13.44 2.29,-4.34 5.52,-7.64 9.69,-9.92 4.18,-2.28 8.82,-3.43 13.98,-3.43 7.96,0 14.47,2.58 19.56,7.76 5.09,5.19 7.62,11.71 7.62,19.62 0,7.98 -2.57,14.59 -7.69,19.83 -5.14,5.24 -11.59,7.86 -19.39,7.86 -4.82,0 -9.41,-1.1 -13.79,-3.28 -4.36,-2.18 -7.69,-5.37 -9.98,-9.6 -2.28,-4.21 -3.41,-9.35 -3.41,-15.4zm14.3 0.74c0,5.23 1.24,9.23 3.7,12.01 2.49,2.79 5.53,4.17 9.17,4.17 3.61,0 6.66,-1.38 9.11,-4.17 2.45,-2.78 3.68,-6.82 3.68,-12.11 0,-5.15 -1.23,-9.13 -3.68,-11.9 -2.45,-2.79 -5.5,-4.17 -9.11,-4.17 -3.64,0 -6.68,1.38 -9.17,4.17 -2.46,2.77 -3.7,6.78 -3.7,12z" />
		<path id="_1" class="fil0" d="M755.92 497.96l0 -7.87c-1.93,2.8 -4.44,5.03 -7.57,6.71 -3.13,1.65 -6.43,2.48 -9.89,2.48 -3.55,0 -6.73,-0.78 -9.54,-2.33 -2.82,-1.56 -4.85,-3.75 -6.1,-6.56 -1.27,-2.82 -1.89,-6.71 -1.89,-11.68l0 -33.39 13.89 0 0 24.24c0,7.42 0.26,11.95 0.78,13.63 0.51,1.67 1.44,3.01 2.81,3.97 1.35,0.98 3.07,1.47 5.17,1.47 2.38,0 4.51,-0.66 6.41,-1.96 1.89,-1.3 3.18,-2.92 3.87,-4.87 0.69,-1.94 1.05,-6.67 1.05,-14.23l0 -22.25 13.89 0 0 52.64 -12.88 0z" />
		<path id="_2" class="fil0" d="M807.13 445.32l0 11.06 -9.54 0 0 21.31c0,4.33 0.09,6.85 0.27,7.56 0.19,0.71 0.59,1.3 1.25,1.78 0.64,0.45 1.42,0.69 2.35,0.69 1.3,0 3.16,-0.44 5.61,-1.34l1.17 10.82c-3.23,1.39 -6.88,2.08 -10.97,2.08 -2.5,0 -4.75,-0.42 -6.76,-1.27 -2.01,-0.84 -3.48,-1.94 -4.41,-3.27 -0.95,-1.36 -1.59,-3.17 -1.97,-5.47 -0.28,-1.62 -0.43,-4.9 -0.43,-9.85l0 -23.04 -6.39 0 0 -11.06 6.39 0 0 -10.44 13.89 -8.22 0 18.66 9.54 0z" />
		<path class="fil1" d="M816.03 444.17c9.64,24.1 7.12,26.24 1.07,39.11 -1.05,2.96 3.84,9.57 7.13,8.2 11.06,-15.17 11.87,-41.06 0.07,-55.55 -5.21,-2.85 -9.02,-2.91 -8.27,8.24zm37.23 -36.96c13.62,20.35 19.36,38.85 19.59,56.2 0.09,7.11 -1.85,19.39 -4.74,28.37 -3.01,9.4 -8.28,19.38 -15.02,28.2 -3.62,8.67 5.02,11.39 9.11,9.21 22.79,-25.06 28.52,-65.76 18.12,-98.15 -3.21,-9.98 -9.55,-24.41 -18.1,-32.96 -2.99,-2.56 -12.28,-1.96 -8.96,9.13zm-19.38 19.1c8.24,13.42 11.62,25.24 11.66,37.1 0.08,21.35 -7.98,27.64 -10.61,37.66 -2.26,7.54 3.88,11.58 7.92,8.97 20.23,-24.16 21.42,-69.49 0.09,-92.74 -5.47,-4 -10.24,0.41 -9.06,9.01z" />
		<path class="fil2" d="M128.86 382.36c-9.52,0 -17.4,7.88 -17.4,17.4 0,9.51 7.88,17.4 17.4,17.4l60.9 0c23.93,0 43.51,-19.58 43.51,-43.5 0,-23.93 -19.58,-43.51 -43.51,-43.51l-34.8 0c-4.89,0 -8.7,-3.8 -8.7,-8.7 0,-4.89 3.81,-8.7 8.7,-8.7l52.2 0c9.52,0 17.4,-7.88 17.4,-17.4 0,-9.51 -7.88,-17.4 -17.4,-17.4l-52.2 0c-23.92,0 -43.5,19.58 -43.5,43.5 0,23.93 19.58,43.51 43.5,43.51l34.8 0c4.9,0 8.7,3.8 8.7,8.7 0,4.89 -3.8,8.7 -8.7,8.7l-60.9 0z" />
		<path class="fil0" d="M234.53 295.35c0,7.89 4.62,14.69 11.42,17.95 -5.99,10.06 -9.25,21.75 -9.25,34.26l0 104.4c0,9.52 7.89,17.4 17.4,17.4 9.52,0 17.4,-7.88 17.4,-17.4l0 -44.05c10.06,5.99 22.03,9.25 34.8,9.25 38.34,0 69.61,-31.27 69.61,-69.6 0,-38.34 -31.27,-69.61 -69.61,-69.61 -12.5,0 -24.19,3.54 -34.52,9.25 -3,-6.8 -9.79,-11.42 -17.68,-11.42 -10.87,0 -19.57,8.7 -19.57,19.57l0 0zm36.97 52.21c0,-19.31 15.5,-34.81 34.8,-34.81 19.31,0 34.81,15.5 34.81,34.81 0,19.3 -15.5,34.8 -34.81,34.8 -19.3,0 -34.8,-15.5 -34.8,-34.8l0 0z" />
		<path class="fil0" d="M459.82 417.16c9.52,0 17.4,-7.89 17.4,-17.4 0,-9.52 -7.88,-17.4 -17.4,-17.4l-17.4 0c-13.05,0 -24.2,-6.8 -30.18,-17.4l82.38 0c9.52,0 17.41,-7.89 17.41,-17.4 0,-38.34 -31.27,-69.61 -69.61,-69.61 -38.33,0 -69.6,31.27 -69.6,69.61 0,38.33 31.27,69.6 69.6,69.6l17.4 0zm-17.4 -104.41c12.78,0 24.2,7.07 30.18,17.4l-60.36 0c5.98,-10.33 17.13,-17.4 30.18,-17.4z" />
		<path class="fil0" d="M508.94 347.56c0,38.33 31.26,69.6 69.6,69.6 12.51,0 24.2,-3.26 34.26,-9.25 3.26,6.8 10.06,11.42 17.94,11.42 10.88,0 19.58,-8.7 19.58,-19.57 0,-7.89 -4.62,-14.68 -11.42,-17.67 5.71,-10.34 9.24,-22.03 9.24,-34.53 0,-38.34 -31.26,-69.61 -69.6,-69.61 -38.34,0 -69.6,31.27 -69.6,69.61l0 0zm34.8 0c0,-19.31 15.5,-34.81 34.8,-34.81 19.3,0 34.8,15.5 34.8,34.81 0,19.3 -15.5,34.8 -34.8,34.8 -19.3,0 -34.8,-15.5 -34.8,-34.8l0 0z" />
		<path class="fil0" d="M789.97 307.59c3.26,-3.27 5.17,-7.61 5.17,-12.24 0,-9.51 -7.89,-17.4 -17.4,-17.4 -4.63,0 -8.98,1.91 -12.24,5.17l-74.77 74.77 0 -114.74c0,-9.52 -7.88,-17.4 -17.4,-17.4 -9.51,0 -17.4,7.88 -17.4,17.4l0 156.61c0,9.51 7.89,17.4 17.4,17.4 4.35,0 8.97,-1.63 12.24,-5.17l39.96 -39.96 39.97 39.96c3.26,3.54 7.89,5.17 12.24,5.17 9.51,0 17.4,-7.89 17.4,-17.4 0,-4.35 -1.63,-8.97 -5.17,-12.24l-39.97 -39.96 39.97 -39.97z" />
		<path class="fil3" d="M226.2 713.23c5.45,-0.82 9.78,-0.95 13.14,-0.48 31.75,4.47 -8.37,54.71 -27.05,81.84 61.45,-11.95 90.97,-26.63 114.02,-83.61 138.13,-3.87 247.07,29.6 332.1,-65.39 36.7,-41.01 47.65,-70.67 47.29,-123.44l-46.9 0c-2.19,176.67 -223.05,144.94 -346.09,147.92 -10.62,67.38 -13.41,81.23 -83.54,113.79 24.35,-34 55.47,-59.12 36.53,-113.93 -75.41,-4.85 -104.03,6.99 -157.94,-36.03 -32.92,-26.28 -63.15,-68.6 -63.42,-133.6 -0.27,-65.64 0.02,-131.34 0.02,-196.98 0,-65.81 -7.43,-123.63 22.71,-174.37 21.37,-35.98 60.34,-71.8 116.66,-80.23 25,-3.75 160.03,-1.76 195.77,-1.76 97.26,0 180.89,-15.84 243.54,53.63 32.72,36.3 36.24,50.56 36.24,96.29l46.89 0 0.37 -32.83c-9.47,-62.39 -55.12,-108.73 -93.75,-132.57 -59.79,-36.9 -118.59,-29.79 -197.07,-29.79 -71.31,0 -154.37,-3.94 -224.22,0.22 -68.67,4.09 -120.61,41.46 -148.33,78.33 -43.54,57.94 -43.17,94.51 -43.17,180.06 0,75.47 0.05,150.94 0,226.41 -0.09,146.52 80.56,225.06 226.2,226.52z" />
	</g>
</svg>
